<svg id="Layer_1" data-name="Layer 1" xmlns="http://www.w3.org/2000/svg" viewBox="0 0 192 108"><defs><style>.cls-1,.cls-3,.cls-5{fill:#ca8450;}.cls-2,.cls-7,.cls-8{fill:none;}.cls-2,.cls-3,.cls-5,.cls-6,.cls-7,.cls-8,.cls-9{stroke:#000;}.cls-2,.cls-3,.cls-5,.cls-6,.cls-7,.cls-8{strokeMiterlimit:10;}.cls-2,.cls-3,.cls-5,.cls-6,.cls-7{strokeWidth:0.6px;}.cls-4{fill:#10100f;}.cls-5,.cls-6,.cls-7,.cls-8,.cls-9{strokeLinecap:round;}.cls-6{fill:#d6b89a;}.cls-8,.cls-9{strokeWidth:0.4px;}.cls-9{fill:#fefefe;strokeLinejoin:round;}</style></defs><path class="cls-1" d="M95.07,35.28a2.39,2.39,0,0,1-1.77-.78,2.66,2.66,0,0,1-.66-2L93,29a2.3,2.3,0,0,1,2.31-2h1.41A2.29,2.29,0,0,1,99,29l.32,3.47a2.67,2.67,0,0,1-.67,2,2.36,2.36,0,0,1-1.76.78Z"/><path d="M96.66,27.26a2,2,0,0,1,2,1.76L99,32.49A2.21,2.21,0,0,1,96.86,35H95.07a2.21,2.21,0,0,1-2.13-2.49L93.25,29a2,2,0,0,1,2-1.76h1.4m0-.6h-1.4A2.61,2.61,0,0,0,92.65,29l-.31,3.47a2.94,2.94,0,0,0,.74,2.27,2.67,2.67,0,0,0,2,.88h1.79a2.63,2.63,0,0,0,2-.88,3,3,0,0,0,.75-2.27L99.27,29a2.59,2.59,0,0,0-2.61-2.3Z"/><path class="cls-1" d="M83,93.58c-3.14,0-3.25-.88-3.31-1.35l0-.14c-.08-.47.35-1.86,3.23-2.65,3.4-.93,3.32-2.72,3.32-2.79l0-.61-1.5-29.51,7.22.46c-.07,3-.58,27.71-.59,27.93s0,.42,0,.81c0,.61,0,1.54-.09,2.92-.11,2.93-.29,3-.47,3.15l-.14.09A19.72,19.72,0,0,1,83,93.58Z"/><path d="M85,56.85l6.59.43c-.08,4-.57,27.36-.58,27.62s0,.43,0,.82c0,.61,0,1.53-.09,2.92a10,10,0,0,1-.28,2.87.1.1,0,0,1,0,0l-.15.09A19.7,19.7,0,0,1,83,93.28c-2.87,0-3-.71-3-1.09,0-.06,0-.11,0-.15-.06-.37.35-1.59,3-2.31,3.58-1,3.55-2.89,3.54-3.08l0-.63L85,56.85m-.64-.64,1.52,29.84,0,.62s.11,1.6-3.1,2.48-3.53,2.46-3.44,3-.05,1.74,3.62,1.74a19.75,19.75,0,0,0,7.79-1.75c.37-.27.61,0,.73-3.47.08-2.28.09-3.32.11-3.73,0-.12.59-28.22.59-28.22l-7.84-.5Z"/><path class="cls-1" d="M108.19,94.63a8.7,8.7,0,0,1-3-.57c-2.64-1-3.47-1.77-3.74-2.18a.56.56,0,0,1-.08-.36l.08-4.57L99.82,57.32,107,57l-.46,29.18a7.74,7.74,0,0,0,.12,2.16c.21.59.72,1.32,2.91,2.29a2.64,2.64,0,0,1,1.75,2.59.73.73,0,0,1-.28.6A4.53,4.53,0,0,1,108.19,94.63Z"/><path d="M106.67,57.3c-.07,4.27-.44,28.4-.45,28.63v.24a7.72,7.72,0,0,0,.14,2.27c.23.64.78,1.44,3.07,2.46A2.33,2.33,0,0,1,111,93.23a.46.46,0,0,1-.17.35,4.26,4.26,0,0,1-2.64.75,8.64,8.64,0,0,1-2.87-.55c-2.65-1-3.39-1.76-3.59-2.07a.3.3,0,0,1,0-.19l.08-4.61-1.65-29.3,6.54-.31m.61-.63L99.5,57,101.18,87l-.08,4.55a.92.92,0,0,0,.13.54c.3.46,1.18,1.33,3.88,2.3a9,9,0,0,0,3.08.59,5,5,0,0,0,3-.88,1,1,0,0,0,.39-.85,2.93,2.93,0,0,0-1.92-2.85c-2.09-.93-2.57-1.61-2.75-2.12a10,10,0,0,1-.11-2.29s.46-29.27.46-29.27Z"/><path class="cls-1" d="M105.47,57.26c-.1,2.26-.17,3.63-.27,5.85l-9.14.52-9.54-.85c-.07-2.37-.14-2.7-.21-5.12,3.76.22,5.13-1,8.9-.74C97.84,56.86,102.84,57.32,105.47,57.26Z"/><path class="cls-2" d="M89.92,63a41.47,41.47,0,0,0,5.61.58,39.62,39.62,0,0,0,7.13-.39"/><path class="cls-2" d="M89.08,56.71c2.28.23,4.65.13,7.22.21,3.25.09,6.23.23,9,.06"/><path class="cls-1" d="M111.47,58.07l-.07,0a6.42,6.42,0,0,0-2-.38h-1a.47.47,0,0,1-.38-.16.5.5,0,0,1-.06-.41,16.59,16.59,0,0,0,.07-2c0-.49,0-.93,0-1.19.07-1,.05-2,0-2.94v-.44c0-.94-.12-1.88-.21-2.68-.12-1-.31-2-.57-3.21a13.49,13.49,0,0,0-.92-2.73C106,41,105.5,40,104.93,39a2.75,2.75,0,0,1-.3-1.18l0-.29a13.1,13.1,0,0,1-.13-2.28c.06-1.31-1.59-2.35-2.58-2.86l-.39-.18c-.22-.09-.46-.2-.43-.48s.06-.53,1.68-.53a7.83,7.83,0,0,1,3.37.72,5.65,5.65,0,0,1,1.39,1.1c.15.18.25.33.35.47l.06.09a16.71,16.71,0,0,1,1.26,2.2,36,36,0,0,1,1.53,3.79c.41,1.21.7,2.42,1,3.75A16.19,16.19,0,0,1,112,45l.06.46c.15,1.15.21,2.32.26,3.32l0,.54c0,.28,0,.56,0,.87l0,1.12c0,.86,0,1.74-.09,2.62,0,.49-.13,1.22-.23,1.93-.07.53-.14,1-.18,1.43a1.25,1.25,0,0,0,0,.15.69.69,0,0,1-.07.57l-.09.1h-.22Z"/><path d="M102.75,31.48a7.23,7.23,0,0,1,3.22.68,5.13,5.13,0,0,1,1.31,1,4.11,4.11,0,0,1,.39.53,15.44,15.44,0,0,1,1.24,2.16,33.14,33.14,0,0,1,1.51,3.76c.42,1.22.72,2.47,1,3.72a20.89,20.89,0,0,1,.32,2.08c.15,1.09.21,2.19.26,3.29,0,.46,0,.91,0,1.42,0,1.2-.07,2.45-.13,3.7,0,.86-.33,2.49-.41,3.35,0,.14.11.56,0,.56h0a7,7,0,0,0-2.09-.4h-.16l-.66,0h-.15c-.16,0-.2,0-.17-.21.13-.68,0-2.57.1-3.26.08-1.14,0-2.27,0-3.41,0-.9-.11-1.81-.21-2.71a32.32,32.32,0,0,0-.58-3.24,13.88,13.88,0,0,0-.94-2.79,32.41,32.41,0,0,0-1.49-2.94,3.45,3.45,0,0,1-.29-1.36,11.77,11.77,0,0,1-.13-2.22c.07-1.49-1.69-2.61-2.75-3.15-.43-.22-.67-.26-.66-.36s.61-.26,1.39-.26m0-.6h0c-1.33,0-1.92.24-2,.8s.4.69.61.79a3.53,3.53,0,0,1,.37.17c.74.38,2.47,1.4,2.42,2.58a13.64,13.64,0,0,0,.13,2.33l0,.28a3.07,3.07,0,0,0,.34,1.3A31.35,31.35,0,0,1,106.13,42a13.78,13.78,0,0,1,.91,2.67c.26,1.17.44,2.21.56,3.18a26.15,26.15,0,0,1,.21,2.65V51c0,1,0,1.94,0,2.89,0,.29,0,.72,0,1.23a15.29,15.29,0,0,1-.07,2,.79.79,0,0,0,.13.65.78.78,0,0,0,.6.28h1a6.36,6.36,0,0,1,1.91.36l.1,0h.14a.66.66,0,0,0,.48-.22,1,1,0,0,0,.14-.8c0-.05,0-.09,0-.12,0-.33.1-.84.18-1.38.1-.71.2-1.45.22-2,0-.88.08-1.76.11-2.63l0-1.08v-.06c0-.3,0-.57,0-.84s0-.38,0-.57c-.05-1-.11-2.18-.26-3.34l-.06-.45a14.36,14.36,0,0,0-.28-1.68c-.32-1.35-.62-2.56-1-3.79a34.35,34.35,0,0,0-1.54-3.81,16.21,16.21,0,0,0-1.29-2.25l-.06-.09a4.45,4.45,0,0,0-.37-.5h0a5.91,5.91,0,0,0-1.46-1.17,8.06,8.06,0,0,0-3.51-.76Z"/><path class="cls-1" d="M109.78,64.55a.84.84,0,0,1-.79-.5s0,0,0,0a1.57,1.57,0,0,1-.18.19,1,1,0,0,1-.62.3.66.66,0,0,1-.33-.09.8.8,0,0,1-.37-.92c.08-.45.16-.9.25-1.35a10.25,10.25,0,0,0,.2-2.24v-.12l0,.11a3.48,3.48,0,0,1-.48,1,4.47,4.47,0,0,1-.34.4.9.9,0,0,1-.61.27.76.76,0,0,1-.38-.11.74.74,0,0,1-.26-.87,7,7,0,0,1,1.85-3.43,2.81,2.81,0,0,0,.38-.44.8.8,0,0,1,.74-.31,6.52,6.52,0,0,1,2.73.44.46.46,0,0,1,.28.22,7.38,7.38,0,0,1,1.14,3.8,5.78,5.78,0,0,1-.36,2.14,1.47,1.47,0,0,1-.52.7.72.72,0,0,1-.46.16,1.17,1.17,0,0,1-.48-.13l-.12-.06-.1-.18a0,0,0,0,1,0,0c0,.07-.07.14-.11.22a2.2,2.2,0,0,1-.56.72A.67.67,0,0,1,109.78,64.55Z"/><path d="M108.8,56.7h0a6.4,6.4,0,0,1,2.6.41.22.22,0,0,1,.14.1,7.15,7.15,0,0,1,1.1,3.65,5.42,5.42,0,0,1-.34,2,1.23,1.23,0,0,1-.41.57.48.48,0,0,1-.29.1.93.93,0,0,1-.35-.1c-.14-.07,0-.18,0-.26a5.54,5.54,0,0,0,.36-1.82,4,4,0,0,0-.08-1c0-.13-.08-.25-.22-.25h0c-.18,0-.21.17-.19.32a5,5,0,0,1-.55,3.08,1.86,1.86,0,0,1-.48.63.44.44,0,0,1-.25.08.56.56,0,0,1-.51-.3c0-.09,0-.14.09-.21a6,6,0,0,0,.66-3c0-.18,0-.48-.24-.48h0c-.28,0-.21.3-.21.48a5.9,5.9,0,0,1-.5,2.49,1.79,1.79,0,0,1-.45.7.68.68,0,0,1-.42.23.49.49,0,0,1-.19,0,.54.54,0,0,1-.22-.61c.08-.45.16-.9.25-1.34a9.94,9.94,0,0,0,.21-2.31c0-.18,0-.38-.23-.42h-.06c-.19,0-.28.15-.33.32a3.33,3.33,0,0,1-.44.91,3.65,3.65,0,0,1-.31.36.58.58,0,0,1-.4.19.39.39,0,0,1-.23-.07c-.2-.11-.16-.34-.11-.54a6.74,6.74,0,0,1,1.76-3.29,2.52,2.52,0,0,0,.43-.49c.09-.15.33-.17.49-.17m0-.6a1.08,1.08,0,0,0-1,.45,2.4,2.4,0,0,1-.31.36,7.33,7.33,0,0,0-2,3.61,1,1,0,0,0,.4,1.19,1,1,0,0,0,.53.15,1.18,1.18,0,0,0,.82-.36,3.45,3.45,0,0,0,.3-.34,7.5,7.5,0,0,1-.15.93c-.09.45-.17.91-.25,1.36a1.1,1.1,0,0,0,.52,1.23,1,1,0,0,0,.48.13,1.18,1.18,0,0,0,.74-.31,1.22,1.22,0,0,0,.86.35,1,1,0,0,0,.63-.22A2.18,2.18,0,0,0,111,64l0,0a1.47,1.47,0,0,0,.61.16,1.07,1.07,0,0,0,.64-.21,1.87,1.87,0,0,0,.62-.84,6.13,6.13,0,0,0,.38-2.25,7.76,7.76,0,0,0-1.18-4,.78.78,0,0,0-.41-.35,7,7,0,0,0-2.85-.46Z"/><path class="cls-1" d="M81.08,59,81,58.88c-.12-.15-.08-.34,0-.55a1.24,1.24,0,0,0,0-.23,20.63,20.63,0,0,1-.38-3,14.27,14.27,0,0,1,0-2L80.61,52c0-.76.06-1.56.15-2.34L81,47.12c.06-.64.18-1.28.29-1.9l0-.11c.21-1.17.44-2.2.71-3.16a33.84,33.84,0,0,1,1.67-4.75,10.62,10.62,0,0,1,2-3.46,7.28,7.28,0,0,1,3.56-1.93l.39-.09,0,.4c0,.33-.41.63-1.86,1.57a9.85,9.85,0,0,0-1.39,1c-.11.67-.24,1.45-.3,2.23S86,38.16,86,38.79s0,1-.08,1.53c-.05.72-.15,1.44-.24,2.16l0,.19a4.54,4.54,0,0,0,0,.83v.23a11.63,11.63,0,0,1-.17,1.88c0,.22-.07.45-.1.67-.08.62-.15,1.23-.22,1.85-.09.92-.19,1.85-.28,2.77,0,.22,0,.45-.06.67s0,.56-.08.84c-.09.84-.12,1.64-.14,2.61a18,18,0,0,1-.31,3h0s0,.08,0,.13a.59.59,0,0,1,0,.55l-.09.12-.2,0H83.9a4.18,4.18,0,0,0-2.54.15l0,0h-.23Z"/><path d="M89.34,32.1c0,.43-3.15,2.09-3.22,2.47a22.33,22.33,0,0,0-.33,2.32c-.09,1.14-.11,2.28-.19,3.41-.06.78-.16,1.55-.26,2.33a6.73,6.73,0,0,0,0,1.1,17.51,17.51,0,0,1-.27,2.51c-.07.62-.15,1.24-.21,1.86-.1.92-.2,1.85-.29,2.77,0,.5-.08,1-.13,1.51-.1.88-.13,1.76-.15,2.63A19.77,19.77,0,0,1,84,57.87c-.1.15.19.67,0,.67h0a4.67,4.67,0,0,0-1.11-.13,4.54,4.54,0,0,0-1.61.3h0c-.13,0,.09-.48,0-.65a21.11,21.11,0,0,1-.38-3,15.26,15.26,0,0,1,0-1.91c.07-1.15.08-2.31.21-3.47l.27-2.54c.06-.66.19-1.33.31-2,.19-1,.41-2.1.69-3.13A35.36,35.36,0,0,1,84,37.32,10.5,10.5,0,0,1,85.92,34a7.13,7.13,0,0,1,3.42-1.85m.64-.77-.78.19a7.59,7.59,0,0,0-3.7,2,10.7,10.7,0,0,0-2,3.56,33.22,33.22,0,0,0-1.69,4.79c-.27,1-.5,2-.71,3.18l0,.12c-.11.63-.22,1.27-.29,1.92-.09.85-.17,1.69-.27,2.54s-.12,1.59-.15,2.36l-.06,1.14a14.7,14.7,0,0,0,0,2,22.26,22.26,0,0,0,.38,3l0,.13a.83.83,0,0,0,.09.8l.18.23h.31a.67.67,0,0,0,.24,0,4,4,0,0,1,1.4-.26,4.09,4.09,0,0,1,1,.12H84a.64.64,0,0,0,.52-.25.86.86,0,0,0,.09-.81.29.29,0,0,0,0-.09,18.87,18.87,0,0,0,.28-3c0-.8,0-1.71.14-2.58,0-.29.06-.58.08-.86s0-.44.06-.66c.09-.92.18-1.85.28-2.77.07-.61.14-1.23.22-1.84l.09-.67a12,12,0,0,0,.18-1.93V43.5a4.09,4.09,0,0,1,0-.79l0-.16c.09-.72.18-1.47.24-2.21,0-.51.06-1,.08-1.54s.06-1.24.11-1.86.18-1.45.3-2.13A14.29,14.29,0,0,1,87.94,34c1.46-1,2-1.31,2-1.82l0-.8Z"/><path class="cls-1" d="M83.73,65.68a1,1,0,0,1-.79-.5l0,0a.48.48,0,0,1-.2.32.75.75,0,0,1-.47.18.72.72,0,0,1-.41-.14,1.85,1.85,0,0,1-.47-.57l-.3.07-.23,0a1,1,0,0,1-.86-.56,4.25,4.25,0,0,1-.52-2.19,6.37,6.37,0,0,1,1.07-3.74c.09-.14.2-.27.3-.41L81,57.9a.54.54,0,0,1,.3-.19,4.9,4.9,0,0,1,1.58-.27,5.22,5.22,0,0,1,1.1.12.5.5,0,0,1,.32.18,10.08,10.08,0,0,1,1.9,3.5,4.66,4.66,0,0,1,.12.65.75.75,0,0,1-.17.57.72.72,0,0,1-.53.23.75.75,0,0,1-.26,0,1.88,1.88,0,0,1-1-1.1,4,4,0,0,1-.29-.87,9.14,9.14,0,0,0,.22,2.75c.07.39.14.77.19,1.15a.88.88,0,0,1-.41,1A.72.72,0,0,1,83.73,65.68Z"/><path d="M82.9,57.74a4.53,4.53,0,0,1,1,.12.25.25,0,0,1,.16.06,10.13,10.13,0,0,1,1.84,3.4,4.1,4.1,0,0,1,.11.61.4.4,0,0,1-.4.46l-.16,0a1.57,1.57,0,0,1-.87-.93,3.55,3.55,0,0,1-.29-1,.28.28,0,0,0-.32-.28h0c-.18,0-.21.12-.23.28a9,9,0,0,0,.2,3c.07.38.14.76.2,1.14a.61.61,0,0,1-.26.7.41.41,0,0,1-.18,0,.74.74,0,0,1-.55-.37,5.44,5.44,0,0,1-.73-1.9,4.87,4.87,0,0,1-.17-1.52c0-.12,0-.25-.17-.27h0c-.15,0-.21.12-.22.24s0,.5,0,.75a6.47,6.47,0,0,0,.66,2.55c.06.12.21.24,0,.38a.52.52,0,0,1-.29.12.37.37,0,0,1-.23-.09,1.45,1.45,0,0,1-.4-.48,5.06,5.06,0,0,1-.68-3.14c0-.16,0-.33-.17-.36h0c-.15,0-.22.13-.25.28a5,5,0,0,0,.32,2.66c.06.16.14.32.21.49a.52.52,0,0,1-.17,0,.67.67,0,0,1-.6-.41,3.88,3.88,0,0,1-.48-2,6.14,6.14,0,0,1,1-3.58c.15-.21.32-.42.49-.64a.28.28,0,0,1,.17-.09,4.45,4.45,0,0,1,1.47-.25m0-.6a5,5,0,0,0-1.66.28.87.87,0,0,0-.46.3l-.19.24c-.1.14-.21.27-.31.42a6.61,6.61,0,0,0-1.12,3.91,4.59,4.59,0,0,0,.55,2.33,1.25,1.25,0,0,0,1.13.72l.29,0,.1,0a1.6,1.6,0,0,0,.44.47,1,1,0,0,0,.58.2,1,1,0,0,0,.65-.24l.07,0a1.16,1.16,0,0,0,.76.31.93.93,0,0,0,.46-.12,1.16,1.16,0,0,0,.57-1.32c-.06-.39-.13-.77-.2-1.16s-.14-.78-.19-1.16a1.85,1.85,0,0,0,.91.71,1.13,1.13,0,0,0,.36.06,1,1,0,0,0,.75-.33,1,1,0,0,0,.25-.8,3.93,3.93,0,0,0-.14-.7,10.26,10.26,0,0,0-2-3.61.79.79,0,0,0-.48-.28,5.18,5.18,0,0,0-1.17-.13Z"/><path class="cls-1" d="M95.83,58.36a44,44,0,0,1-11.18-1.44l-.23-.06.49-20a5.67,5.67,0,0,1,5.69-5.35l12.65-.32a4.66,4.66,0,0,1,3.3,1.36,4.05,4.05,0,0,1,1.17,2.93l-.5,21.37-.22.06a43.73,43.73,0,0,1-11.15,1.44Z"/><path d="M103.25,31.5a4,4,0,0,1,4.17,4l-.5,21.14a43.45,43.45,0,0,1-11.07,1.43h0a43.62,43.62,0,0,1-11.09-1.43l.48-19.75a5.36,5.36,0,0,1,5.4-5.06l12.52-.32h.12m0-.6h-.13l-12.53.32a6,6,0,0,0-6,5.65l-.48,19.74v.48l.45.12a44.51,44.51,0,0,0,11.25,1.45,44.28,44.28,0,0,0,11.25-1.45l.44-.12v-.45L108,35.5a4.29,4.29,0,0,0-1.26-3.14,4.9,4.9,0,0,0-3.51-1.46Z"/><path class="cls-3" d="M102.71,24.83c0,.72-2.36,5.2-6.74,5.37s-7.18-2.68-7.28-5.1c-.06-1.72-.06-5.13,0-7a4.39,4.39,0,0,1,.64-2.28l.4-.66a4.41,4.41,0,0,1,4-2.12l4,.2a4.19,4.19,0,0,1,1.7.43h0a4.4,4.4,0,0,1,2.46,3.49l.31,2.77a5.67,5.67,0,0,1,0,.71l0,.74"/><path class="cls-4" d="M90.37,19.85c1.22-1,1.81-.83,3.26-.66a.3.3,0,0,0,.28-.12c.27-.35,0-.76-.49-.93a4.49,4.49,0,0,0-2.3.12c-.41.16-1.17.93-.92,1.54A.11.11,0,0,0,90.37,19.85Z"/><path class="cls-4" d="M100,19.48c-1.29-.85-1.87-.69-3.3-.41a.31.31,0,0,1-.3-.1c-.29-.32,0-.75.43-1a4.49,4.49,0,0,1,2.3-.06c.42.13,1.23.85,1,1.47A.11.11,0,0,1,100,19.48Z"/><ellipse class="cls-4" cx="98.15" cy="21.33" rx="0.69" ry="0.98" transform="translate(-0.74 3.76) rotate(-2.19)"/><ellipse class="cls-4" cx="92.52" cy="21.55" rx="0.69" ry="0.98" transform="translate(-0.75 3.55) rotate(-2.19)"/><path class="cls-3" d="M102.06,21.51a2.16,2.16,0,0,1,1.58-1.5c1.25-.3,2.52,2.81.55,4.58a1,1,0,0,1-.9.23.94.94,0,0,1-.74-.77"/><path class="cls-5" d="M103,22.46s.85-1.74,1.21-.9"/><path class="cls-5" d="M103.46,22.18s.55.7-.09,1.05"/><path class="cls-3" d="M88.53,20.85a.79.79,0,0,0-.59-.11c-.65.15-1,1.34-.84,2.19a3,3,0,0,0,1.52,2"/><path class="cls-6" d="M87.79,22h0a.38.38,0,0,1,.36,0l.5.32"/><path class="cls-7" d="M92.38,25.55a3.86,3.86,0,0,0,3,1.59,3.71,3.71,0,0,0,3.24-1.89"/><path class="cls-3" d="M94.4,21.87a1.93,1.93,0,0,0-.77,1.93,1.72,1.72,0,0,0,1.29,1.39,1.79,1.79,0,0,0,1.92-1.38"/><path class="cls-8" d="M94.1,27.71a2.19,2.19,0,0,0,1.4.47,2.11,2.11,0,0,0,1.35-.51"/><path class="cls-9" d="M103.57,41.05a11.52,11.52,0,0,0,.44,2.83Z"/><path class="cls-9" d="M111.53,34.84c-4.79.95-8,2.12-8,6.21a11.52,11.52,0,0,0,.44,2.83c.93,2.13,1.13,5.53-.6,6.88,0,.23-.39.49-.85.74s-1,.52-1.42.73v.09c-7.58,2.19-8.06.14-1.2-3.32,2.43-1-.15-3.76.11-5.65-.17-.66-1.29-1.09-1.5-1.8a.81.81,0,0,1,0-.38c-1.82-2.19,0-6.65.16-8.64.49-2.43.92-5.81,2.39-7.68,0-1.52.55-3.17.51-4.65h0a2.78,2.78,0,0,0-1.74-2.57,1.5,1.5,0,0,1,.34-.16c-3.59.82-7.84-.54-11.19,1a.36.36,0,0,0-.29-.24c.59.2.21,1.22-.29,1.53A3,3,0,0,0,88,19.2,15.64,15.64,0,0,1,89,22.81c.79,1.57,2.22,4.7,2.26,4.7s.17.76.22,1.19a2.06,2.06,0,0,1,0,.21h0c.64.61.32,1.21.06,1.81a.61.61,0,0,1-.1-.14,2,2,0,0,1,.1,1,37.52,37.52,0,0,0-2,6.07,25.32,25.32,0,0,1-2,5.52c-.75,1.09,2.65,2.17,3.25,2.93.66.49.1,1.09.23,1.7-.73-.06-1.06.7-1.69,1.06-1.41,1.41-3.79,2.22-5.47,3.06-5.72,3.76-4.8-1.42-4-5.51.79-1-.58-1.89-.58-2.89a64.56,64.56,0,0,0-.93-9c.55-.21.7-.92,1.3-1.13,7.88-4.38,4.11-3.88,6.63-12.29a6,6,0,0,0-.32-1.89c-.58-.23,1.11-1.87,1.53-1.82.77-3.34-3.88-3.46,3.42-3.93-.21-.57-.63-.26-1-.19-2.17-.47,2.92-2.26,3.78-2.09,3.24-.39,7.58-1.09,8.72,2.62,1.43-.35.17,1.17,1.5,1.18.39.39.4.72-.27,1-.87,1.3,2.24,3.94,2.19,5.77,1.76,1.69,1.56,4.05,2.63,5.63h0C109.35,29.65,112.45,33.29,111.53,34.84Z"/><path class="cls-9" d="M91.12,47.93H91C91,48,91.07,48,91.12,47.93Z"/><path d="M87.46,15.83c-1-1.81-.89-2,1.51-2.19l2.08-.15h1.5l3.61,0a25.82,25.82,0,0,0,3.4.18l.4.06,1.07.05a2.67,2.67,0,0,0,1.51,0c.28,0,.68-.15.83.21,0,.43-.23,1,.65,1h0c.38.39.39.72-.27,1-.21.08-.49.12-.45.39a7.78,7.78,0,0,0-2-.06c-.31,0-.62,0-.92-.07-4.11-.71-8.26-.31-12.4-.18Z"/></svg>