<svg id="Layer_1" data-name="Layer 1" xmlns="http://www.w3.org/2000/svg" viewBox="0 0 192 108"><defs><style>.cls-1,.cls-3,.cls-5{fill:#ca8450;}.cls-1,.cls-2,.cls-4,.cls-5{stroke:#000;stroke-miterlimit:10;stroke-width:0.6px;}.cls-2{fill:#d6b89a;}.cls-2,.cls-5{stroke-linecap:round;}.cls-4{fill:none;}.cls-6{fill:#111009;}.cls-7{fill:#1f1c12;}.cls-8{fill:#fbf6eb;}</style></defs><path class="cls-1" d="M89.52,20.28a.92.92,0,0,0-.6-.11c-.65.16-1,1.35-.83,2.2a3,3,0,0,0,1.52,2"/><path class="cls-2" d="M88.77,21.42h0a.41.41,0,0,1,.37,0l.5.31"/><path class="cls-3" d="M95.86,35.73a1.84,1.84,0,0,1-1.35-.62,2.93,2.93,0,0,1-.7-2.19l.26-3.48a2.09,2.09,0,0,1,2-2h1.15a2.08,2.08,0,0,1,1.94,2l.26,3.48a2.93,2.93,0,0,1-.7,2.19,1.84,1.84,0,0,1-1.35.62Z"/><path d="M97.17,27.71a1.79,1.79,0,0,1,1.64,1.76l.26,3.47a2.1,2.1,0,0,1-1.75,2.49H95.86a2.1,2.1,0,0,1-1.75-2.49l.26-3.47A1.79,1.79,0,0,1,96,27.71h1.15m0-.6H96a2.39,2.39,0,0,0-2.25,2.31l-.26,3.47a3.32,3.32,0,0,0,.78,2.43,2.13,2.13,0,0,0,1.57.71h1.46a2.13,2.13,0,0,0,1.57-.71,3.24,3.24,0,0,0,.78-2.43l-.26-3.47a2.39,2.39,0,0,0-2.24-2.31Z"/><path class="cls-3" d="M83.53,93.86c-3.1,0-3.15-1-3.18-1.58v-.16s-.13-2,3.35-3.05S87,86.12,87,86v-.66L86.79,57l6.08.39c-.1,2.91-.89,26.56-.9,26.79s0,.45,0,.88c0,.66-.06,1.67-.13,3.19-.16,3.31-.35,3.45-.54,3.58l-.14.11A17.76,17.76,0,0,1,83.53,93.86Z"/><path d="M87.1,57.3l5.46.35c-.13,3.92-.88,26.23-.89,26.48s0,.46,0,.88c0,.66-.06,1.67-.13,3.2-.12,2.5-.26,3.19-.36,3.32l0,0a.83.83,0,0,0-.15.11,17.72,17.72,0,0,1-7.41,1.88c-2.82,0-2.86-.81-2.88-1.29,0-.06,0-.12,0-.17,0-.48.44-1.91,3.14-2.74,3.56-1.1,3.55-3.24,3.55-3.31v-.67L87.1,57.3m-.61-.64.24,28.72v.67s0,1.76-3.13,2.73S80,91.55,80,92.15s-.17,2,3.49,2a17.82,17.82,0,0,0,7.79-2c.36-.31.59,0,.78-3.9.12-2.51.14-3.63.17-4.07,0-.13.91-27.08.91-27.08l-6.69-.43Z"/><path class="cls-3" d="M108.67,95.08a8.07,8.07,0,0,1-3-.66c-2.66-1.11-3.51-2.06-3.78-2.53a.91.91,0,0,1-.11-.45l0-5.09-2-28.7,6-.28c.08,3.05.79,28.16.79,28.16a9.86,9.86,0,0,0,.22,2.34c.21.6.74,1.43,2.94,2.52a3.35,3.35,0,0,1,1.92,3,1,1,0,0,1-.25.74A3.84,3.84,0,0,1,108.67,95.08Z"/><path d="M105.5,57.68c.11,4.1.77,27.37.78,27.6v.25a9.53,9.53,0,0,0,.24,2.44c.24.69.8,1.56,3.09,2.69a3,3,0,0,1,1.75,2.77.58.58,0,0,1-.16.49,3.52,3.52,0,0,1-2.53.86,7.64,7.64,0,0,1-2.87-.64c-2.68-1.11-3.44-2-3.64-2.4a.59.59,0,0,1-.07-.31l0-5.12-2-28.37,5.43-.26m.58-.63-6.66.32,2,29,0,5.08a1.18,1.18,0,0,0,.15.61c.3.53,1.21,1.52,3.93,2.65a8,8,0,0,0,3.1.69,4.15,4.15,0,0,0,3-1,1.2,1.2,0,0,0,.34-1,3.66,3.66,0,0,0-2.08-3.25c-2.1-1-2.6-1.79-2.8-2.35a11.62,11.62,0,0,1-.2-2.51c0-.06-.8-28.21-.8-28.21Z"/><path class="cls-3" d="M104.55,57.56c0,2,0,3.17,0,5.15l-8,.47-8.37-.77c0-2.11,0-2.4,0-4.5,3.22.18,4.41-.83,7.64-.65C98,57.21,102.29,57.61,104.55,57.56Z"/><path class="cls-4" d="M91.11,62.59a34.34,34.34,0,0,0,11.17.18"/><path class="cls-4" d="M90.5,57.09c2,.2,4,.11,6.18.17,2.79.09,5.34.21,7.75.06"/><path class="cls-3" d="M109.62,58.62l-.07,0a5.33,5.33,0,0,0-1.77-.37h-.86a.43.43,0,0,1-.43-.56,16.86,16.86,0,0,0,.07-2c0-.48,0-.93,0-1.19.07-1,.05-2,0-3v-.43c0-.93-.1-1.84-.19-2.69s-.27-2-.5-3.21a15.15,15.15,0,0,0-.82-2.73c-.39-.95-.81-2-1.32-2.92a3,3,0,0,1-.26-1.18l0-.28a15.7,15.7,0,0,1-.12-2.28c.06-1.32-1.41-2.36-2.29-2.87l-.33-.18c-.19-.09-.43-.2-.4-.47s.05-.53,1.53-.53a6.32,6.32,0,0,1,3,.73,5.09,5.09,0,0,1,1.24,1.1,5,5,0,0,1,.32.47l.05.09a16.13,16.13,0,0,1,1.12,2.21A36.1,36.1,0,0,1,109,40.11c.37,1.23.64,2.47.91,3.75.11.55.18,1.11.24,1.65l0,.46c.14,1.15.19,2.31.23,3.31,0,.18,0,.37,0,.56s0,.55,0,.85l0,1.16c0,.85,0,1.71-.08,2.57,0,.5-.12,1.23-.2,1.93-.07.54-.13,1.06-.16,1.43,0,0,0,.1,0,.16,0,.23.06.43-.07.57l-.09.1h-.22Z"/><path d="M101.88,32a5.82,5.82,0,0,1,2.86.68,4.71,4.71,0,0,1,1.17,1c.16.21.25.39.35.54a15.58,15.58,0,0,1,1.09,2.16,36.46,36.46,0,0,1,1.35,3.76c.37,1.22.64,2.47.9,3.72a20.8,20.8,0,0,1,.29,2.08c.13,1.09.19,2.19.23,3.29,0,.46,0,.91,0,1.41,0,1.21-.06,2.46-.12,3.71,0,.86-.29,2.49-.36,3.35,0,.14.09.56,0,.56h0a5.44,5.44,0,0,0-1.86-.4h-.14l-.59,0h-.13c-.14,0-.18,0-.15-.21.12-.68,0-2.57.08-3.26.08-1.14,0-2.27,0-3.41,0-.9-.09-1.81-.19-2.71a32.1,32.1,0,0,0-.51-3.24,15,15,0,0,0-.84-2.79c-.41-1-.82-2-1.32-2.94a3.83,3.83,0,0,1-.26-1.36,13.77,13.77,0,0,1-.12-2.22c.06-1.49-1.5-2.61-2.44-3.15-.38-.22-.59-.26-.58-.36s.53-.26,1.23-.26m0-.6c-1.21,0-1.77.25-1.83.8a.78.78,0,0,0,.56.77l.32.17c.66.38,2.19,1.4,2.14,2.6a16.12,16.12,0,0,0,.12,2.32l0,.28a3.45,3.45,0,0,0,.3,1.29c.5,1,.91,2,1.3,2.89a14.07,14.07,0,0,1,.8,2.68c.24,1.17.4,2.21.51,3.18.08.8.17,1.73.18,2.66v.46c0,.95,0,1.94,0,2.9,0,.28,0,.71,0,1.22a18.12,18.12,0,0,1-.06,2,.79.79,0,0,0,.13.65.77.77,0,0,0,.57.27h.86a4.92,4.92,0,0,1,1.67.35l.11.05H110l.2-.21a1,1,0,0,0,.15-.81s0-.09,0-.12c0-.34.09-.86.16-1.39.08-.71.17-1.45.2-2,0-.88.06-1.76.09-2.63l0-1.09v0c0-.3,0-.58,0-.85s0-.37,0-.55c0-1-.09-2.18-.23-3.34l0-.45c-.07-.55-.13-1.12-.25-1.68-.27-1.29-.55-2.55-.92-3.78a35.26,35.26,0,0,0-1.37-3.81A16.2,16.2,0,0,0,106.77,34l-.06-.09c-.09-.14-.19-.31-.33-.49a5.33,5.33,0,0,0-1.32-1.18,6.64,6.64,0,0,0-3.18-.77Z"/><path class="cls-3" d="M108.13,65.1a.79.79,0,0,1-.73-.48.63.63,0,0,1-.11.12.82.82,0,0,1-.58.32.64.64,0,0,1-.33-.1.82.82,0,0,1-.33-.9c.07-.46.14-.91.22-1.36a10.86,10.86,0,0,0,.19-2.17,3.76,3.76,0,0,1-.4.9,3,3,0,0,1-.31.39.78.78,0,0,1-.57.28.62.62,0,0,1-.37-.11.75.75,0,0,1-.23-.85,7.23,7.23,0,0,1,1.64-3.43,2.49,2.49,0,0,0,.34-.44.72.72,0,0,1,.7-.33,5.52,5.52,0,0,1,2.45.45.47.47,0,0,1,.25.23,8.18,8.18,0,0,1,1,3.79,6.44,6.44,0,0,1-.33,2.13,1.44,1.44,0,0,1-.46.7.67.67,0,0,1-.44.17.93.93,0,0,1-.46-.14.43.43,0,0,1-.18-.18l0,.12a2.33,2.33,0,0,1-.5.73A.67.67,0,0,1,108.13,65.1Z"/><path d="M107.26,57.24h0a5.13,5.13,0,0,1,2.31.42.17.17,0,0,1,.12.1,7.9,7.9,0,0,1,1,3.65,6.33,6.33,0,0,1-.31,2A1.28,1.28,0,0,1,110,64a.36.36,0,0,1-.25.1.75.75,0,0,1-.31-.1c-.13-.07,0-.18,0-.26a6.65,6.65,0,0,0,.32-1.82,4.67,4.67,0,0,0-.07-1c0-.13-.08-.25-.2-.25h0c-.15,0-.18.17-.16.32a5.5,5.5,0,0,1-.49,3.08,1.86,1.86,0,0,1-.43.63.35.35,0,0,1-.22.08.48.48,0,0,1-.45-.3c0-.1,0-.14.07-.21a6.32,6.32,0,0,0,.59-3c0-.18,0-.48-.21-.48h0c-.25,0-.18.3-.18.48a6.55,6.55,0,0,1-.45,2.49,1.81,1.81,0,0,1-.4.7c-.11.11-.23.23-.37.23a.37.37,0,0,1-.17-.05.56.56,0,0,1-.19-.61c.07-.45.14-.9.22-1.34a11.93,11.93,0,0,0,.18-2.31c0-.18,0-.38-.2-.42h-.06c-.17,0-.24.15-.29.32a3.52,3.52,0,0,1-.39.91,3.44,3.44,0,0,1-.28.36.47.47,0,0,1-.35.18.42.42,0,0,1-.21-.06c-.17-.11-.14-.34-.1-.54a7.06,7.06,0,0,1,1.57-3.29,2.29,2.29,0,0,0,.38-.49.51.51,0,0,1,.44-.18m0-.6a1,1,0,0,0-1,.48,2.72,2.72,0,0,1-.28.36,7.68,7.68,0,0,0-1.74,3.6,1.07,1.07,0,0,0,.37,1.17,1,1,0,0,0,.53.15A1.11,1.11,0,0,0,106,62l.11-.13c0,.25-.07.5-.11.75-.08.45-.16.91-.23,1.36a1.11,1.11,0,0,0,.47,1.2.88.88,0,0,0,.49.15,1,1,0,0,0,.65-.27,1.13,1.13,0,0,0,.77.31,1,1,0,0,0,.63-.24,2.3,2.3,0,0,0,.45-.59,1.26,1.26,0,0,0,.54.14,1,1,0,0,0,.64-.24,1.81,1.81,0,0,0,.55-.83,7.06,7.06,0,0,0,.34-2.23,8.52,8.52,0,0,0-1-3.93.81.81,0,0,0-.39-.36,5.85,5.85,0,0,0-2.58-.48Z"/><path class="cls-3" d="M83.06,59.35l-.12-.13c-.12-.15-.07-.34,0-.55a.75.75,0,0,0,0-.24,24.49,24.49,0,0,1-.23-3,15.64,15.64,0,0,1,0-1.94l.09-1.15c.06-.76.11-1.55.21-2.32s.22-1.69.33-2.53c.07-.62.19-1.23.31-1.84l0-.16c.23-1.16.47-2.18.74-3.13a37.83,37.83,0,0,1,1.64-4.7A11,11,0,0,1,88,34.24a6.42,6.42,0,0,1,3.25-1.83l.4-.09,0,.41a7,7,0,0,1-1.27,2A11.62,11.62,0,0,0,89.42,36a1.37,1.37,0,0,1-.7.88c-.26.16-.39.26-.42.5-.07.63-.11,1.26-.16,1.88s-.08,1-.13,1.53c-.07.72-.18,1.45-.28,2.18l0,.15a5.7,5.7,0,0,0,0,.83v.23a12.72,12.72,0,0,1-.22,1.88c0,.22-.07.44-.11.66-.08.62-.17,1.23-.25,1.85-.12.91-.24,1.83-.35,2.76,0,.21,0,.43-.07.65s-.06.57-.1.85c-.12.89-.17,1.8-.22,2.61a19.54,19.54,0,0,1-.37,3h0s0,.09,0,.14a.65.65,0,0,1-.06.55l-.09.11-.18,0h0l-.08,0a3.23,3.23,0,0,0-1-.16,3.46,3.46,0,0,0-1.21.23l-.06,0h-.22Z"/><path d="M91.32,32.7c0,.44-2.12,2.88-2.19,3.26-.15.76-1,.64-1.13,1.42-.12,1.14-.18,2.27-.29,3.41-.07.77-.19,1.54-.3,2.32a6.7,6.7,0,0,0,0,1.1,20.83,20.83,0,0,1-.32,2.5c-.09.61-.18,1.23-.26,1.85-.12.92-.23,1.84-.35,2.76-.06.5-.1,1-.17,1.5-.12.88-.17,1.75-.22,2.63a20.88,20.88,0,0,1-.33,2.84c-.09.15.15.68,0,.68h0a3.82,3.82,0,0,0-1.1-.17,3.63,3.63,0,0,0-1.32.25h0c-.11,0,.1-.48.06-.66a24.45,24.45,0,0,1-.23-3,15.06,15.06,0,0,1,0-1.9c.1-1.16.15-2.31.3-3.47l.33-2.52c.08-.67.21-1.33.34-2,.2-1,.44-2.08.73-3.1a35.85,35.85,0,0,1,1.63-4.66,10.83,10.83,0,0,1,1.83-3.31,6.16,6.16,0,0,1,3.1-1.75m.67-.76-.8.18A6.7,6.7,0,0,0,87.78,34a11.41,11.41,0,0,0-1.94,3.49,37.37,37.37,0,0,0-1.66,4.74c-.27,1-.51,2-.74,3.15l0,.1c-.12.63-.25,1.27-.33,1.92-.1.84-.21,1.69-.32,2.53s-.16,1.58-.22,2.35l-.09,1.13a16.2,16.2,0,0,0,0,2,25.58,25.58,0,0,0,.23,3,.8.8,0,0,1,0,.15.88.88,0,0,0,.08.81l.18.23h.42l.13,0a3.12,3.12,0,0,1,1.11-.21,3.32,3.32,0,0,1,.92.14l.09,0h.13a.65.65,0,0,0,.5-.24.89.89,0,0,0,.12-.79.43.43,0,0,0,0-.11,21.06,21.06,0,0,0,.35-2.94c0-.81.1-1.72.22-2.59,0-.28.07-.57.1-.86s0-.43.07-.65c.11-.92.23-1.84.35-2.76.08-.61.16-1.22.25-1.84,0-.22.07-.44.11-.66A13,13,0,0,0,88,44.22V44a5.23,5.23,0,0,1,0-.81L88,43c.11-.72.22-1.46.29-2.2,0-.51.09-1,.13-1.54s.09-1.24.16-1.86c0-.09,0-.12.28-.28a1.66,1.66,0,0,0,.83-1,14,14,0,0,1,.88-1.24c1-1.35,1.3-1.77,1.33-2.13l.07-.81Z"/><path class="cls-3" d="M85.21,66.09a.85.85,0,0,1-.7-.47.48.48,0,0,1-.17.23.68.68,0,0,1-.44.18.6.6,0,0,1-.41-.17,1.71,1.71,0,0,1-.4-.56l-.22,0-.2,0a.87.87,0,0,1-.81-.61,4.64,4.64,0,0,1-.38-2.18,7,7,0,0,1,1.07-3.7l.29-.39.17-.24a.5.5,0,0,1,.29-.19,4.06,4.06,0,0,1,1.31-.23,4.25,4.25,0,0,1,1.11.16.47.47,0,0,1,.3.2,10.46,10.46,0,0,1,1.57,3.55,4.62,4.62,0,0,1,.08.65.72.72,0,0,1-.19.57.64.64,0,0,1-.47.21.66.66,0,0,1-.27-.06,1.83,1.83,0,0,1-.9-1.13,4.86,4.86,0,0,1-.19-.64,11.37,11.37,0,0,0,.13,2.53c0,.39.1.77.14,1.16a1,1,0,0,1-.41,1A.6.6,0,0,1,85.21,66.09Z"/><path d="M84.61,58.13a3.72,3.72,0,0,1,1,.15s.09,0,.13.07a10.07,10.07,0,0,1,1.52,3.46,3,3,0,0,1,.08.6.39.39,0,0,1-.36.46.28.28,0,0,1-.15,0,1.52,1.52,0,0,1-.74-1,3.19,3.19,0,0,1-.22-1c0-.2-.12-.28-.28-.28h0c-.16,0-.18.12-.21.27a10.54,10.54,0,0,0,.08,3c0,.38.1.76.14,1.15s0,.55-.26.69a.28.28,0,0,1-.15,0,.65.65,0,0,1-.48-.38,5.55,5.55,0,0,1-.58-1.93,5.15,5.15,0,0,1-.1-1.52c0-.12,0-.25-.15-.27h0c-.13,0-.19.11-.2.23s0,.5,0,.75a6.91,6.91,0,0,0,.5,2.56c0,.13.17.25,0,.39a.42.42,0,0,1-.25.11.32.32,0,0,1-.21-.09,1.48,1.48,0,0,1-.34-.5,5.5,5.5,0,0,1-.5-3.16c0-.15,0-.33-.14-.36h0c-.13,0-.2.14-.22.28a5.49,5.49,0,0,0,.19,2.67c0,.16.11.32.17.5h-.14c-.26,0-.42-.17-.54-.43a4.44,4.44,0,0,1-.35-2,6.61,6.61,0,0,1,1-3.54c.14-.21.3-.41.45-.62a.29.29,0,0,1,.16-.09,3.61,3.61,0,0,1,1.2-.21m0-.6a4.15,4.15,0,0,0-1.39.24.87.87,0,0,0-.46.31l-.17.23-.29.4a7.28,7.28,0,0,0-1.12,3.85,4.9,4.9,0,0,0,.41,2.33,1.16,1.16,0,0,0,1.08.78,1.07,1.07,0,0,0,.25,0h0a1.7,1.7,0,0,0,.36.45.92.92,0,0,0,.61.24,1,1,0,0,0,.61-.23,1,1,0,0,0,.7.29,1,1,0,0,0,.45-.11A1.19,1.19,0,0,0,86.21,65c0-.39-.08-.78-.13-1.17s-.09-.65-.12-1a1.58,1.58,0,0,0,.66.52.92.92,0,0,0,.39.09.94.94,0,0,0,.69-.3,1.09,1.09,0,0,0,.27-.8,4.29,4.29,0,0,0-.09-.69A10.8,10.8,0,0,0,86.27,58a.78.78,0,0,0-.46-.32,4.57,4.57,0,0,0-1.2-.17Z"/><path class="cls-3" d="M96.07,58.77a26.15,26.15,0,0,1-9-1.61l-.21-.08L88,36.82a5,5,0,0,1,4.52-4.89l9.3-.28a3.77,3.77,0,0,1,3.61,3.89l.28,21.5-.2.07a27.64,27.64,0,0,1-9.28,1.66Z"/><path d="M101.89,32a3.47,3.47,0,0,1,3.22,3.59l.28,21.29a27.51,27.51,0,0,1-9.18,1.64h-.14a25.74,25.74,0,0,1-8.88-1.6l1.09-20a4.71,4.71,0,0,1,4.23-4.61l9.3-.28h.08m0-.6h-.1l-9.3.28a5.32,5.32,0,0,0-4.81,5.17l-1.09,20,0,.45.43.15a26.34,26.34,0,0,0,9.08,1.63h.14a28,28,0,0,0,9.38-1.68l.41-.14v-.43l-.28-21.29a4.07,4.07,0,0,0-3.82-4.18Z"/><path class="cls-1" d="M103.71,24.38c0,.72-2.36,5.2-6.74,5.37s-7.18-2.68-7.28-5.1c-.06-1.72-.06-5.13,0-7a4.39,4.39,0,0,1,.64-2.28l.4-.66a4.41,4.41,0,0,1,4-2.12l4,.19a4.37,4.37,0,0,1,1.7.44h0a4.4,4.4,0,0,1,2.46,3.49l.31,2.77a5.67,5.67,0,0,1,0,.71l0,.74"/><path class="cls-5" d="M102.76,21.36a2.16,2.16,0,0,1,1.58-1.5c1.25-.3,2.52,2.81.55,4.57a1,1,0,0,1-.9.24,1,1,0,0,1-.74-.77"/><path class="cls-5" d="M103.71,22.31s.85-1.74,1.21-.9"/><path class="cls-5" d="M104.16,22s.55.7-.09,1"/><path class="cls-6" d="M101.06,19a.23.23,0,0,1-.28,0,2.43,2.43,0,0,0-1-.55,2.52,2.52,0,0,0-1.25,0c-.15,0-.24,0-.29-.13s0-.22.15-.27a2.1,2.1,0,0,1,.76-.15,2.33,2.33,0,0,1,1.73.69,1.39,1.39,0,0,1,.15.19C101.12,18.88,101.15,19,101.06,19Z"/><path class="cls-6" d="M93.81,18.53l-.31-.08h-.22A3.23,3.23,0,0,0,92,18.7a1.62,1.62,0,0,0-.39.3c-.1.1-.23.18-.33.09s-.06-.26,0-.38A2.18,2.18,0,0,1,92.76,18a2,2,0,0,1,1.2.11c.07,0,.15.08.17.18C94.16,18.54,94.09,18.6,93.81,18.53Z"/><path class="cls-6" d="M98.7,25.37a2.16,2.16,0,0,1-.65.43,5.27,5.27,0,0,1-2.18.4,3.47,3.47,0,0,1-1.61-.37,1.72,1.72,0,0,1-.45-.31.27.27,0,0,1-.06-.37c.09-.12.21,0,.32.05a3.46,3.46,0,0,0,2.4.58,4,4,0,0,0,2-.72c.08,0,.18-.16.26,0A.26.26,0,0,1,98.7,25.37Z"/><path class="cls-6" d="M96.44,24.06a.94.94,0,0,1-.59.26h-.19a1.23,1.23,0,0,1-1-.44,1,1,0,0,1-.17-.94,1.72,1.72,0,0,1,1-1.15.24.24,0,0,1,.31.05c.08.09,0,.21-.06.29s-.35.31-.5.48a.9.9,0,0,0-.29.59.78.78,0,0,0,1,.72,1.35,1.35,0,0,0,.37-.13c.09-.05.21-.1.26,0A.25.25,0,0,1,96.44,24.06Z"/><path class="cls-6" d="M100,21.73a.75.75,0,0,1-1.42-.05,1.69,1.69,0,0,1,0-1.13.73.73,0,0,1,.73-.51.79.79,0,0,1,.77.66A1.9,1.9,0,0,1,100,21.73Z"/><path class="cls-6" d="M94.05,21.26a.92.92,0,0,1-.49.89.73.73,0,0,1-1-.32,1.59,1.59,0,0,1-.06-1.35.71.71,0,0,1,.62-.44.72.72,0,0,1,.72.36A1.53,1.53,0,0,1,94.05,21.26Z"/><path class="cls-7" d="M95,88h-.55c-.86,0-1.72-.13-2.56-.23l-.69-.09A27.48,27.48,0,0,1,88,87l-.13,0c-.4-.1-.79-.23-1.19-.36L86,86.4a11.55,11.55,0,0,1-2.79-1.19c-.21-.12-.42-.26-.62-.4l-.34-.23a.69.69,0,0,1-.26-.65c.08-1.13.2-2.31.37-3.83l.06-.51c0-.31.08-.62.11-.93,0-.59.12-1.18.19-1.77s.12-1.06.17-1.58.11-1,.17-1.55.12-.9.16-1.35c.08-.83.19-1.66.3-2.48s.25-1.82.38-2.72.29-2,.44-2.94c.21-1.34.43-2.68.65-4,.08-.51.17-1,.26-1.52a6.74,6.74,0,0,1-2.88-1,.65.65,0,0,1-.27-.74c.18-1,.36-3,.54-4.93s.36-4,.55-5c.21-1.16.44-2.31.67-3.46l.12-.6c.26-1.33.54-2.7.85-4,.4-1.68.88-3.66,1.44-5.58a18,18,0,0,1,1.42-3.66l.1-.17c.16-.25.29-.33.44-.33a.48.48,0,0,1,.38.23,10.34,10.34,0,0,0,1.57,1.82,9,9,0,0,0,2.06,1.37,8.71,8.71,0,0,0,2.21.74l.27.06a4.16,4.16,0,0,0,.83.12h.62a7.94,7.94,0,0,0,2.07-.18,9.65,9.65,0,0,0,2.25-.87A17.43,17.43,0,0,0,102.71,31l1-.8a1,1,0,0,0,.39-.53,1.12,1.12,0,0,1,.83-.76,1.07,1.07,0,0,1,.25,0,.89.89,0,0,1,.68.34A10.89,10.89,0,0,1,107.56,32a22.85,22.85,0,0,1,1.22,3.81c.36,1.5.61,2.76.8,4,.07.39.13.77.2,1.16.09.56.19,1.12.27,1.68l0,.11c.15,1,.3,2,.41,3.08.14,1.32.3,2.82.41,4.3s.22,5,.25,6.21a.7.7,0,0,1-.43.77,1.7,1.7,0,0,1-.51.08,3.33,3.33,0,0,1-1.12-.26,3.18,3.18,0,0,0-.94-.24h-.48a1.45,1.45,0,0,1-.63-.18l-.14-.05a1,1,0,0,1-.4-.3,4.4,4.4,0,0,1-.33.92,2.48,2.48,0,0,0-.33,1.16c0,.49.4,2.76.63,4.27.1.66.18,1.17.2,1.32q.15,1.17.27,2.34c.1.9.18,1.72.26,2.55l.16,1.55c.08.69.15,1.38.2,2.07,0,.53.09,1.06.14,1.59l.22,2.36c.06.61.12,1.22.17,1.83q.06.68.09,1.35l.06.8.09,1.18c.06.81.12,1.61.17,2.43v.19c0,.81,0,1-.58,1.42a8.55,8.55,0,0,1-1.91,1,19.84,19.84,0,0,1-1.9.6l-.41.11a15.84,15.84,0,0,1-1.87.37l-.25,0c-.87.13-1.75.2-2.59.26l-.56,0c-.41,0-.81,0-1.19,0h-.16c-.35,0-.69,0-1,0Zm9.1-48.3A2.83,2.83,0,0,0,104.4,41C104.33,40.66,104.14,39.76,104.12,39.67Z"/><path d="M105.22,29.2a.57.57,0,0,1,.45.24,10.44,10.44,0,0,1,1.61,2.7,22.94,22.94,0,0,1,1.21,3.76c.31,1.29.59,2.6.8,4,.15.94.33,1.88.46,2.84s.31,2.1.43,3.17c.15,1.42.3,2.85.41,4.3s.21,4.78.25,6.19c0,.26,0,.4-.23.47a1.22,1.22,0,0,1-.41.07c-.68,0-1.35-.48-2.06-.5h-.48c-.16,0-.21,0-.66-.21-.61-.24-.45-1.14-.54-1.92-.13-1.18-.23-2.35-.34-3.51-.15-1.6-.38-3.17-.58-4.73-.16-1.19-.37-2.36-.56-3.53-.29-1.78-.74-3.49-1-5.24-.09-.57-.12-1.16-.18-1.73a.47.47,0,0,0,0-.17c0-.09,0-.26-.13-.26h0c-.12,0-.14.16-.15.28a8.6,8.6,0,0,0,.16,2.63c.06.36.14.73.19,1.09a1.54,1.54,0,0,1,0,.48c-.16,1.13.84,2.28.91,3.44,0,.6,0,1.21.12,1.81l.24,2.09.3,2.36c.11.87.24,1.74.35,2.63.16,1.24.36,2.49.49,3.76.08.87-.77,1.73-.7,2.61.07.72.77,5.11.83,5.6.11.8.19,1.61.28,2.42.11,1,.22,2.12.33,3.19s.21,1.91.28,2.88c.06.82.15,1.63.22,2.45.1,1.11.21,2.21.31,3.33.06.71.1,1.43.15,2.15.08,1.2.19,2.39.26,3.6,0,.94.1,1-.44,1.35a8.36,8.36,0,0,1-1.85,1c-.75.29-1.52.49-2.28.7a16.74,16.74,0,0,1-2.09.4c-1,.16-2.08.22-3.12.3-.4,0-.79,0-1.17,0h-.16c-.36,0-.7,0-1,0H94.48c-1.08,0-2.15-.2-3.23-.32A28.22,28.22,0,0,1,88,86.7c-.65-.15-1.28-.4-1.93-.59A11.94,11.94,0,0,1,83.33,85c-.32-.19-.63-.43-1-.63a.4.4,0,0,1-.12-.38c.09-1.28.23-2.56.37-3.82.05-.48.12-1,.16-1.44.1-1.13.26-2.24.37-3.36.09-1,.24-1.93.33-2.9s.19-1.64.29-2.46l.39-2.77c.15-1,.29-1.93.44-2.88.21-1.35.42-2.68.64-4,.1-.61.21-1.22.32-1.82h.07c.17,0,.22-.17.26-.37.17-.88.34-2.44.51-4.12.07-.37.14-.74.2-1.11.26-1.57.61-3.1.93-4.63s.62-2.89.91-4.33a17.9,17.9,0,0,0,.46-3.08,12.28,12.28,0,0,0-.15-2A14.1,14.1,0,0,1,88.63,37c0-.69,0-1.38,0-2.06a11.75,11.75,0,0,1,.16-1.44,1.93,1.93,0,0,0,0-.34c0-.09,0-.2-.11-.22h0c-.09,0-.09.1-.11.19A15.11,15.11,0,0,0,88.15,37c0,1.18.23,2.32.3,3.49a8.78,8.78,0,0,1-.12,1.45c-.28,2-.78,3.89-1.18,5.86-.25,1.23-.5,3.84-.74,6.22-.21,1.12-.45,2.24-.64,3.38-.06.36-.13.73-.2,1.1a7,7,0,0,1-3.07-1,.36.36,0,0,1-.13-.43c.36-2,.71-8,1.08-9.92.22-1.16.44-2.31.67-3.46.31-1.55.62-3.1,1-4.62.45-1.89.91-3.75,1.44-5.57a17.68,17.68,0,0,1,1.39-3.6l.15-.23c0-.07.09-.11.13-.11a.19.19,0,0,1,.13.1A10.47,10.47,0,0,0,90,31.57,9.2,9.2,0,0,0,92.08,33a8.64,8.64,0,0,0,2.28.77,6.65,6.65,0,0,0,1.16.18h0a11.26,11.26,0,0,0,2.71-.2,10.1,10.1,0,0,0,2.32-.89,32.82,32.82,0,0,0,3.33-2.39c.68-.49.33-1,1.11-1.24l.18,0m0-.6a1.24,1.24,0,0,0-.33,0,1.37,1.37,0,0,0-1,.93.84.84,0,0,1-.29.41c-.36.26-.71.53-1.06.8a16.67,16.67,0,0,1-2.21,1.54,9.31,9.31,0,0,1-2.18.84,7.65,7.65,0,0,1-2,.17h-.59a3.69,3.69,0,0,1-.8-.12l-.28,0a8.77,8.77,0,0,1-2.13-.72,8.64,8.64,0,0,1-2-1.33,9.4,9.4,0,0,1-1.52-1.76A.75.75,0,0,0,88.2,29a.74.74,0,0,0-.64.39l0,.07a.76.76,0,0,0-.12.19A17.78,17.78,0,0,0,86,33.37c-.57,1.93-1,3.92-1.45,5.61-.32,1.34-.59,2.72-.86,4.06l-.12.57c-.23,1.15-.45,2.3-.67,3.46-.19,1-.36,3-.55,5S82,56,81.78,57a.94.94,0,0,0,.39,1,6.82,6.82,0,0,0,2.7,1l-.21,1.22c-.22,1.32-.43,2.66-.65,4-.15,1-.29,1.92-.43,2.89s-.27,1.85-.39,2.78-.22,1.7-.3,2.49c0,.45-.1.9-.15,1.35s-.13,1-.18,1.55-.11,1-.17,1.56-.14,1.19-.19,1.79c0,.31-.07.61-.11.91l-.06.52c-.17,1.5-.29,2.72-.37,3.84a1,1,0,0,0,.39.93l.34.22q.31.23.63.42a12.4,12.4,0,0,0,2.87,1.22l.73.23a12.3,12.3,0,0,0,1.22.37l.12,0a27.77,27.77,0,0,0,3.22.62l.69.08c.84.11,1.71.21,2.59.24h1.66a9.44,9.44,0,0,1,1,0h.16c.41,0,.8,0,1.21,0l.55,0c.85-.06,1.74-.13,2.62-.26l.24,0a17.13,17.13,0,0,0,1.92-.38l.42-.12a18.39,18.39,0,0,0,1.92-.6,9,9,0,0,0,2-1c.74-.52.76-.82.71-1.68v-.19c-.05-.82-.11-1.63-.17-2.44l-.09-1.17-.06-.8-.09-1.36c-.06-.61-.11-1.21-.17-1.81s-.1-1-.14-1.52c0-.29,0-.58-.08-.87,0-.52-.1-1.05-.14-1.57,0-.7-.12-1.39-.2-2.07l-.08-.83-.08-.77c-.08-.81-.17-1.62-.25-2.43v-.07c-.08-.79-.17-1.58-.27-2.36,0-.15-.11-.68-.21-1.36-.21-1.4-.57-3.74-.62-4.22a2.33,2.33,0,0,1,.3-1c.08-.17.15-.35.22-.53l.13.06.14,0a1.75,1.75,0,0,0,.74.2h.47a3.14,3.14,0,0,1,.85.22,3.51,3.51,0,0,0,1.22.28,1.81,1.81,0,0,0,.61-.1,1,1,0,0,0,.63-1.06c0-1.23-.14-4.76-.25-6.22s-.28-3.06-.41-4.31c-.12-1-.26-2.06-.41-3l0-.15c-.08-.57-.18-1.13-.28-1.7-.06-.38-.13-.76-.19-1.15-.19-1.22-.45-2.49-.81-4a23.13,23.13,0,0,0-1.24-3.86,11.44,11.44,0,0,0-1.7-2.85,1.18,1.18,0,0,0-.91-.45Z"/><path class="cls-8" d="M106.87,33.63a.2.2,0,0,1-.11,0,.32.32,0,0,1-.18-.18,7.4,7.4,0,0,0-1.73-2.85.32.32,0,0,1-.08-.28,2,2,0,0,0-.3-.06l-.24,0a2.35,2.35,0,0,0-1.07.31c-.57.29-1.12.62-1.67.94l-1.09.64a8.82,8.82,0,0,1-3.68,1.11q-.42,0-.84,0a9.41,9.41,0,0,1-5.25-1.51,6.27,6.27,0,0,1-2.93-6.28c.17-1.25.28-2.42.35-3.58a25.3,25.3,0,0,1,.6-4.74c.1-.37.22-.73.35-1.09l.08-.22.61-1.21.07-.09a.41.41,0,0,1,0-.09l.21-.3a.3.3,0,0,1,.08-.08.27.27,0,0,1,.06-.1l.17-.22.1-.1a.76.76,0,0,1,.08-.11l.17-.19.35.08-.22-.2.33-.33.24-.21.39-.31.35-.25.1,0a.25.25,0,0,1,.19-.13l1.07-.57.08,0a10.63,10.63,0,0,1,2-.57,11.55,11.55,0,0,1,1.88-.16l.72,0a9.92,9.92,0,0,1,3.11.71l.33.14.09.05c.06,0,.07,0,.12.06a1,1,0,0,0,.23.12l.23.14.37.23a.26.26,0,0,1,.11.1s0,0,.08,0l.14.09.11.1a7.29,7.29,0,0,1,1,1l.43.54.31.47.2.35a.34.34,0,0,1,0,.11l.15.27a.14.14,0,0,1,0,.07l0,.08s0,.05,0,.08l.08.19a.38.38,0,0,1,.06.13l.08.21a16.72,16.72,0,0,1,.61,2.24c.15.82.27,1.57.34,2.29a29.49,29.49,0,0,1,.2,3.5,16.45,16.45,0,0,1-.23,2.73.31.31,0,0,1,.15.08.86.86,0,0,1,.24.5c.1.4.21.71.32,1s.22.65.3,1a5.88,5.88,0,0,1-.25,4,.52.52,0,0,1-.24.32A.35.35,0,0,1,106.87,33.63ZM92,27.45l.09.05a3.11,3.11,0,0,0,.68.38,7.5,7.5,0,0,0,3.2.72,8.41,8.41,0,0,0,1.48-.14,5.21,5.21,0,0,0,1.71-.6l0,0,.08,0,.06,0a1.8,1.8,0,0,0,.4-.25l.09-.05a.38.38,0,0,1,.13-.09l.16-.13a4.28,4.28,0,0,0,1-1,5.28,5.28,0,0,0,.85-1.73,13,13,0,0,0,.51-3.33c0-.55,0-1.07,0-1.57h-.18a.31.31,0,0,1-.22-.09h0a.33.33,0,0,1-.07-.13,6.43,6.43,0,0,0-.6-1.14l0,0,0-.05,0,0a.15.15,0,0,1,0-.08l0-.06a.15.15,0,0,1,0-.07.31.31,0,0,0-.08-.12l0,0a.26.26,0,0,1-.07-.11h0a.35.35,0,0,1,0-.08v0a8.78,8.78,0,0,0-1.82-1.95L99,15.5l-.08-.07a5.35,5.35,0,0,0-4.25-1.08,5.76,5.76,0,0,0-3,1.41A5.64,5.64,0,0,0,90,19.18c-.1.64-.14,1.3-.18,1.86v.28a11.76,11.76,0,0,0,.06,2.85,4.64,4.64,0,0,0,.83,2l.14.19a.49.49,0,0,0,.1.13l.08.07a2.62,2.62,0,0,0,.44.44l.08.08.09.06a.6.6,0,0,1,.11.12l.1.07a.31.31,0,0,1,.15.08ZM89.72,14.58"/><path d="M97.41,10.92c.24,0,.47,0,.7,0a9.55,9.55,0,0,1,3,.69l.33.14a.29.29,0,0,0,.16.07h0a1.34,1.34,0,0,0,.31.17h0l.55.34c0,.06.08.07.13.1s0,0,0,0l.14.1a7.93,7.93,0,0,1,1.1,1.07l.43.54c.09.15.19.29.29.44h0l.16.28h0l0,.06v0c.06.1.11.2.16.3s0,0,0,0l0,.07a.14.14,0,0,0,0,.1c0,.09.08.18.11.27h0l.1.23h0a16.63,16.63,0,0,1,.6,2.2c.14.75.25,1.51.33,2.27a26.82,26.82,0,0,1,.2,3.47,13.34,13.34,0,0,1-.65,4.29s0,.12,0,.15l0,0s.08-.06.11-.1a2.23,2.23,0,0,0,.32-.7c.07-.21.13-.42.2-.63a.78.78,0,0,1,.17.42c.16.66.44,1.29.6,1.94a5.71,5.71,0,0,1-.23,3.78c0,.06,0,.13-.11.17a7.72,7.72,0,0,0-1.81-3h.31a1.18,1.18,0,0,0-.85-.43l-.29,0a2.66,2.66,0,0,0-1.21.34c-.94.49-1.84,1.07-2.77,1.58a8.35,8.35,0,0,1-3.55,1.08l-.82,0a9,9,0,0,1-5.08-1.46A6,6,0,0,1,88.16,28,6.18,6.18,0,0,1,88,25.5q.26-1.8.36-3.6a24.56,24.56,0,0,1,.59-4.68c.12-.44.27-.87.42-1.3a0,0,0,0,0,0,0l.6-1.15a.18.18,0,0,0,.08-.13h0l.13-.17h0l.09-.12c.07,0,.09-.11.13-.17h0l.17-.22,0,0a.47.47,0,0,0,.14-.17l0,0,.13-.13h0l.13-.13,0,0,.25-.25.26-.22h0l.23-.18h0l.14-.11.34-.25a.27.27,0,0,0,.17-.13h0l1.11-.58h0a10.88,10.88,0,0,1,1.93-.55,11.31,11.31,0,0,1,1.83-.16m-7,15.46h0l.09.12a1,1,0,0,0,.21.26l0,0a4.17,4.17,0,0,0,.47.47l.07.06h0l.1.07,0,0a.21.21,0,0,0,.13.09l0,0c0,.06.08.07.13.09a.21.21,0,0,0,.13.09h0a4.24,4.24,0,0,0,.75.42,7.91,7.91,0,0,0,3.32.74,8.09,8.09,0,0,0,1.53-.15,5.73,5.73,0,0,0,1.81-.63h0s0,0,0,0,.07,0,.08,0a1.75,1.75,0,0,0,.47-.29h0a.18.18,0,0,0,.13-.09l.09,0a0,0,0,0,0,0,0l.14-.11a4.44,4.44,0,0,0,1.06-1.1,5.77,5.77,0,0,0,.89-1.81,13.53,13.53,0,0,0,.52-3.4,14.72,14.72,0,0,0-.4-4.44,2.45,2.45,0,0,0-.35-.87s0-.08-.08-.08h0a.11.11,0,0,0,0,.14,9.6,9.6,0,0,1,.42,1.82,9.91,9.91,0,0,1,.14,1.54h-.11a8,8,0,0,0-.64-1.23h0a.39.39,0,0,0-.08-.14.18.18,0,0,0-.09-.12.65.65,0,0,0-.17-.26.18.18,0,0,0-.08-.13l0-.07a8.89,8.89,0,0,0-1.87-2l-.08-.06-.09-.07A5.52,5.52,0,0,0,95.65,14a7.1,7.1,0,0,0-1,.08,6.07,6.07,0,0,0-3.12,1.49,6,6,0,0,0-1.86,3.59c-.1.63-.14,1.26-.18,1.89a13.26,13.26,0,0,0,.06,3.21,5,5,0,0,0,.88,2.15m9.3,3.68a.57.57,0,0,0-.21.13l-.12,0h0s0,0,0,0a12.33,12.33,0,0,1-1.73.71,6.71,6.71,0,0,1-1,.25s-.13,0-.13.07.06.08.11.08h.12a6.53,6.53,0,0,0,3.14-1.05h0l0,0h0a.54.54,0,0,0,.22-.13h0l0,0h0a.18.18,0,0,0,.13-.08.46.46,0,0,0,.21-.13.16.16,0,0,0,.13-.08.46.46,0,0,0,.21-.13h0s.1,0,.13-.09.09,0,.12-.08a.24.24,0,0,0,.13-.09l.08-.05.05,0,0,0,.13-.09h0l0,0,0,0,.1-.06v0h0l.18-.15a.49.49,0,0,0,.17-.15,8.15,8.15,0,0,0,.72-.72s0-.05,0-.08.15-.14.22-.22h0l0,0h0l.09-.12h0l.1-.1a0,0,0,0,0,0,0l.06-.1,0,0a.18.18,0,0,0,.09-.12,1.39,1.39,0,0,0,.23-.31s0,0,0,0a1.09,1.09,0,0,0,.26-.59s0-.09,0-.11h0s0,0-.07.06l-.23.37-.11.12a12.35,12.35,0,0,1-2.38,2.41c-.45.33-.94.61-1.41.91,0,0-.06,0-.08,0M92.6,31h.1s0,0,.06,0-.06-.08-.1-.11,0,0-.06,0a6.16,6.16,0,0,1-2.86-2.5l-.27-.42s0-.06-.09-.06a.06.06,0,0,0,0,0c-.07,0,0,.07,0,.12a5.6,5.6,0,0,0,2.26,2.6,3.2,3.2,0,0,0,1,.42m9.88-18.6h0m-11.16.77h0m-1.06,1.18h0m-.29.43h0m15.22,1.06h0m-4,1.6h0m.08.13h0m.17.26h0m.09.12h0m.71,1.36h0M106.44,27h0m-2.89.18h0m-11.81.46h0m8.29,0h0m2.88.3h0m-1.74,1.57h0m-.12.08h0m-.34.22h0m-.13.08h0m-.21.13h0m-.65,0h0m-.21.13h0m-2.1-19.87a12.19,12.19,0,0,0-1.92.17,9.84,9.84,0,0,0-2,.57l-.14,0-1,.55a.56.56,0,0,0-.26.17l-.08.05-.13.09-.22.16-.08.06-.07.05,0,0-.11.08-.12.1,0,0-.25.21,0,0h0l0,0-.12.11-.12.12,0,0-.13.13h0l-.13.13,0,.05a1.46,1.46,0,0,0-.09.13h0l0,0-.07.08-.08.11-.09.1-.07.11a.73.73,0,0,0-.08.09l-.08.12h0l-.07.09-.06.09a.19.19,0,0,0,0,.09.42.42,0,0,0-.09.14l-.28.54-.3.57a.47.47,0,0,0-.06.15l-.06.18c-.13.36-.26.74-.36,1.12a24.42,24.42,0,0,0-.6,4.77c-.08,1.18-.19,2.34-.36,3.59a6.76,6.76,0,0,0,.18,2.77A6.61,6.61,0,0,0,90.47,32a9.69,9.69,0,0,0,5.41,1.56l.86,0a9,9,0,0,0,3.8-1.15l1.11-.64c.54-.32,1.09-.65,1.65-.94a2,2,0,0,1,.93-.27h.26a.58.58,0,0,0,.15.25,7.14,7.14,0,0,1,1.66,2.74.59.59,0,0,0,.35.36.54.54,0,0,0,.22,0,.63.63,0,0,0,.27-.06.82.82,0,0,0,.39-.46,6.22,6.22,0,0,0,.26-4.17,9.93,9.93,0,0,0-.31-1c-.11-.32-.21-.62-.29-.93v-.06a1.27,1.27,0,0,0-.3-.63l-.06-.06A17.68,17.68,0,0,0,107,24a30.07,30.07,0,0,0-.2-3.53c-.08-.73-.19-1.48-.34-2.32a16.19,16.19,0,0,0-.63-2.28V15.8l-.07-.16a.61.61,0,0,0-.05-.12l-.08-.21,0-.07a.36.36,0,0,0,0-.09h0s0-.05,0-.08l-.08-.15-.05-.1a.46.46,0,0,0,0-.1l0,0a.08.08,0,0,0,0,0l-.15-.25a.3.3,0,0,0,0-.08l-.15-.22-.14-.22-.2-.26-.26-.32a7.93,7.93,0,0,0-1.09-1.08l-.09-.07,0,0-.07-.05,0,0-.07-.05,0,0h0l-.09-.07-.29-.18-.25-.16a.42.42,0,0,0-.14-.06.63.63,0,0,1-.14-.09l-.17-.08h0l-.1-.06-.1,0-.23-.1a10.15,10.15,0,0,0-3.2-.73l-.75,0ZM91.68,26.86l0,0a3.33,3.33,0,0,1-.42-.42l0-.05-.09-.09a.14.14,0,0,1,0-.05l0-.07L90.91,26v0a4.25,4.25,0,0,1-.77-1.89,11.18,11.18,0,0,1-.06-2.78v-.28c0-.69.09-1.27.17-1.84a5.32,5.32,0,0,1,4.49-4.58,5.75,5.75,0,0,1,.91-.07,5,5,0,0,1,3.12,1.11l.06.05,0,0,.08.05a8.06,8.06,0,0,1,1.71,1.85l0,0,.07.1a.57.57,0,0,0,.12.15h0l0,0a.82.82,0,0,0,.12.2.41.41,0,0,0,.07.11.41.41,0,0,0,0,.09,5.87,5.87,0,0,1,.58,1.12.38.38,0,0,0,.09.15h0a.63.63,0,0,0,.36.21c0,.4,0,.82,0,1.26a12.48,12.48,0,0,1-.5,3.25,4.77,4.77,0,0,1-.79,1.63,3.81,3.81,0,0,1-.94,1l-.08.06-.07.06h0a.47.47,0,0,0-.12.09.41.41,0,0,0-.11.07,1.85,1.85,0,0,1-.33.21l-.09,0,0,0a.2.2,0,0,0-.08,0,5,5,0,0,1-1.62.56,7.76,7.76,0,0,1-1.42.14,7.23,7.23,0,0,1-3.07-.69,3.29,3.29,0,0,1-.63-.35.27.27,0,0,0-.1-.06.42.42,0,0,0-.12-.08l0,0L91.87,27l0,0a.34.34,0,0,0-.09-.08l-.06-.05Z"/></svg>